<svg height="480pt" viewBox="0 0 480 480" width="480pt" xmlns="http://www.w3.org/2000/svg"><path d="m240 32h48v16h-48zm0 0"/><path d="m240 64h48v16h-48zm0 0"/><path d="m240 96h48v16h-48zm0 0"/><path d="m240 128h48v16h-48zm0 0"/><path d="m248 160h40v16h-40zm0 0"/><path d="m256 192h32v16h-32zm0 0"/><path d="m248 424.726562c.007812 7.144532 3.457031 13.847657 9.265625 18.007813l50.085937 35.777344c1.355469.96875 2.980469 1.488281 4.648438 1.488281h128c4.417969 0 8-3.582031 8-8v-87.144531c.152344-11.941407-8.273438-22.273438-20-24.527344-6.980469-1.15625-14.113281.8125-19.511719 5.382813l-.488281.410156c-9.101562-8.171875-22.898438-8.171875-32 0-6.617188-5.675782-15.71875-7.484375-24-4.761719v-40.503906c.152344-11.941407-8.273438-22.273438-20-24.527344-6.96875-1.179687-14.097656.773437-19.496094 5.335937-5.394531 4.5625-8.507812 11.269532-8.503906 18.335938v97.871094l-21.230469-12.742188c-6.488281-3.90625-14.523437-4.207031-21.28125-.800781l-1.257812.625c-7.507813 3.722656-12.25 11.390625-12.230469 19.773437zm19.390625-5.480468 1.25-.621094c1.867187-.953125 4.097656-.867188 5.886719.222656l33.351562 20c2.472656 1.484375 5.546875 1.523438 8.054688.109375 2.511718-1.417969 4.0625-4.074219 4.066406-6.957031v-112c-.003906-2.367188 1.042969-4.617188 2.859375-6.140625 1.8125-1.523437 4.207031-2.160156 6.539063-1.746094 3.996093.980469 6.75 4.632813 6.601562 8.742188v63.144531c0 4.417969 3.582031 8 8 8s8-3.582031 8-8 3.582031-8 8-8 8 3.582031 8 8 3.582031 8 8 8 8-3.582031 8-8 3.582031-8 8-8 8 3.582031 8 8 3.582031 8 8 8 8-3.582031 8-8c-.003906-2.371094 1.042969-4.621094 2.859375-6.144531 1.816406-1.523438 4.214844-2.160157 6.546875-1.742188 3.992188.988281 6.742188 4.636719 6.59375 8.742188v79.144531h-117.441406l-48-34.28125c-1.601563-1.15625-2.554688-3.011719-2.558594-4.992188-.007812-2.324218 1.308594-4.449218 3.390625-5.480468zm0 0"/><path d="m32 480h176c17.671875 0 32-14.328125 32-32v-224c0-17.671875-14.328125-32-32-32h-176c-17.671875 0-32 14.328125-32 32v224c0 17.671875 14.328125 32 32 32zm-16-256c0-8.835938 7.164062-16 16-16h176c8.835938 0 16 7.164062 16 16v224c0 8.835938-7.164062 16-16 16h-176c-8.835938 0-16-7.164062-16-16zm0 0"/><path d="m40 320h160c4.417969 0 8-3.582031 8-8v-64c0-4.417969-3.582031-8-8-8h-160c-4.417969 0-8 3.582031-8 8v64c0 4.417969 3.582031 8 8 8zm8-64h144v48h-144zm0 0"/><path d="m40 384h32c4.417969 0 8-3.582031 8-8v-32c0-4.417969-3.582031-8-8-8h-32c-4.417969 0-8 3.582031-8 8v32c0 4.417969 3.582031 8 8 8zm8-32h16v16h-16zm0 0"/><path d="m136 336h-32c-4.417969 0-8 3.582031-8 8v32c0 4.417969 3.582031 8 8 8h32c4.417969 0 8-3.582031 8-8v-32c0-4.417969-3.582031-8-8-8zm-8 32h-16v-16h16zm0 0"/><path d="m40 448h32c4.417969 0 8-3.582031 8-8v-32c0-4.417969-3.582031-8-8-8h-32c-4.417969 0-8 3.582031-8 8v32c0 4.417969 3.582031 8 8 8zm8-32h16v16h-16zm0 0"/><path d="m136 400h-32c-4.417969 0-8 3.582031-8 8v32c0 4.417969 3.582031 8 8 8h32c4.417969 0 8-3.582031 8-8v-32c0-4.417969-3.582031-8-8-8zm-8 32h-16v-16h16zm0 0"/><path d="m200 336h-32c-4.417969 0-8 3.582031-8 8v32c0 4.417969 3.582031 8 8 8h32c4.417969 0 8-3.582031 8-8v-32c0-4.417969-3.582031-8-8-8zm-8 32h-16v-16h16zm0 0"/><path d="m200 400h-32c-4.417969 0-8 3.582031-8 8v32c0 4.417969 3.582031 8 8 8h32c4.417969 0 8-3.582031 8-8v-32c0-4.417969-3.582031-8-8-8zm-8 32h-16v-16h16zm0 0"/><path d="m160 272h16v16h-16zm0 0"/><path d="m128 272h16v16h-16zm0 0"/><path d="m96 272h16v16h-16zm0 0"/><path d="m360 64v16h-2.398438c-10.695312.09375-19.757812 7.886719-21.457031 18.445312-1.699219 10.558594 4.46875 20.800782 14.589844 24.242188l29.3125 9.777344c2.308594.765625 3.875 2.90625 3.914063 5.335937v.246094c-.023438 3.269531-2.660157 5.917969-5.929688 5.953125h-20c-3.355469-.003906-6.074219-2.722656-6.078125-6.078125v-1.921875h-15.953125v1.921875c.011719 12.1875 9.890625 22.066406 22.078125 22.078125h1.921875v16h16v-16h2.0625c11.875-.066406 21.566406-9.515625 21.9375-21.382812 0-.144532 0-.296876 0-.449219.132812-9.453125-5.875-17.90625-14.847656-20.886719l-29.320313-9.769531c-2.445312-.855469-4.035156-3.21875-3.910156-5.808594.011719-3.148437 2.566406-5.699219 5.71875-5.703125h20.28125c3.355469.003906 6.074219 2.722656 6.078125 6.078125v1.921875h16v-1.921875c-.011719-12.1875-9.890625-22.066406-22.078125-22.078125h-1.921875v-16zm0 0"/><path d="m479.488281 69.433594c-.089843-.257813-.152343-.496094-.265625-.746094-.386718-.871094-.929687-1.664062-1.597656-2.34375l-64-64c-.675781-.667969-1.46875-1.210938-2.335938-1.601562-.257812-.109376-.503906-.175782-.761718-.261719-.660156-.230469-1.347656-.367188-2.046875-.4101565-.144531.0195313-.304688-.0703125-.480469-.0703125h-240c-4.417969 0-8 3.582031-8 8v24h-8c-4.417969 0-8 3.582031-8 8v30.511719l-8 .726562c-.222656-13.253906-11.144531-23.820312-24.398438-23.597656-13.257812.21875-23.824218 11.144531-23.601562 24.398437v48c-.210938 13.253907 10.363281 24.171876 23.621094 24.382813 13.253906.207031 24.167968-10.367187 24.378906-23.621094l8 .726563v30.472656c0 4.417969 3.582031 8 8 8h8v16h16v-16h16v16h16v-16h8c4.417969 0 8-3.582031 8-8v-112c0-4.417969-3.582031-8-8-8h-8v-16h96v224h-56v16h64c4.417969 0 8-3.582031 8-8v-232h80v56c0 4.417969 3.582031 8 8 8h56v368h8c4.417969 0 8-3.582031 8-8v-368c0-.167969-.089844-.320312-.097656-.488281-.042969-.707031-.183594-1.40625-.414063-2.078125zm-319.488281-21.433594h48v16.695312l-48 4.359376zm48 32.800781v30.480469l-48-4.371094v-21.78125zm-79.273438 23.199219c-2.238281-.191406-4.457031.558594-6.125 2.0625-1.667968 1.523438-2.609374 3.679688-2.601562 5.9375v8c0 4.417969-3.582031 8-8 8s-8-3.582031-8-8v-48c0-4.417969 3.582031-8 8-8s8 3.582031 8 8v8c-.007812 2.253906.933594 4.40625 2.59375 5.929688 1.664062 1.523437 3.890625 2.277343 6.132812 2.070312l15.273438-1.414062v18.828124zm31.273438 40v-21.054688l48 4.359376v16.695312zm32-112h-16v-16h16zm224 32v-36.6875l36.6875 36.6875zm0 0"/><path d="m336 192h112v16h-112zm0 0"/><path d="m336 224h112v16h-112zm0 0"/><path d="m336 256h112v16h-112zm0 0"/><path d="m368 288h80v16h-80zm0 0"/><path d="m368 320h80v16h-80zm0 0"/><path d="m416 160h32v16h-32zm0 0"/><path d="m256 288h40v16h-40zm0 0"/><path d="m256 320h32v16h-32zm0 0"/><path d="m256 352h32v16h-32zm0 0"/></svg>